<svg id="레이어_1" data-name="레이어 1" xmlns="http://www.w3.org/2000/svg" viewBox="0 0 200 200"><defs><style>.cls-1{fill:#fff;}</style></defs><rect class="cls-1" width="200" height="200"/><path d="M54.59,57.44,35.34,120.91H23.82L4.57,57.44H17.83l11.7,42.84,11.7-42.84Z" transform="translate(0 0)"/><path d="M58.9,99.25a9.78,9.78,0,0,1,9.83-9.89,10,10,0,1,1,0,19.9A9.81,9.81,0,0,1,58.9,99.25Z" transform="translate(0 0)"/><path d="M140.31,78v37c0,18.79-9.49,27.54-24.69,27.54a22.83,22.83,0,0,1-20.91-13.08l10-4.33a12.28,12.28,0,0,0,10.87,6.63c7.74,0,12.62-4.24,12.62-15.47v-.65c-3.13,4.15-9,6.08-13.82,6.08-11,0-21.09-8.57-21.09-22.39S103.37,77,114.42,77c4.89,0,10.69,1.93,13.82,6.08V78ZM127.87,99.35a11.15,11.15,0,1,0-11.14,11.15A11.09,11.09,0,0,0,127.87,99.35Z" transform="translate(0 0)"/><path d="M149.19,99.35c0-13.63,10.87-22.47,23.12-22.47s23.12,8.84,23.12,22.47-10.87,22.39-23.12,22.39S149.19,112.9,149.19,99.35Zm34,0c0-6.72-4.88-11.23-10.87-11.23s-10.87,4.51-10.87,11.23a10.87,10.87,0,1,0,21.74,0Z" transform="translate(0 0)"/></svg>