<?xml version="1.0" standalone="no"?>
<!DOCTYPE svg PUBLIC "-//W3C//DTD SVG 20010904//EN"
 "http://www.w3.org/TR/2001/REC-SVG-20010904/DTD/svg10.dtd">
<svg version="1.0" xmlns="http://www.w3.org/2000/svg"
 width="256.000000pt" height="256.000000pt" viewBox="0 0 256.000000 256.000000"
 preserveAspectRatio="xMidYMid meet">

<g transform="translate(0.000000,256.000000) scale(0.100000,-0.100000)"
fill="#000000" stroke="none">
<path d="M184 1753 c3 -10 40 -130 81 -268 42 -137 90 -294 106 -348 l30 -98
67 3 66 3 108 355 c59 195 108 359 108 363 0 4 -34 7 -76 5 l-77 -3 -61 -225
c-34 -124 -64 -231 -67 -239 -3 -7 -34 94 -69 225 l-65 239 -78 3 c-72 3 -78
1 -73 -15z"/>
<path d="M1385 1541 c-73 -18 -142 -77 -170 -145 -22 -52 -22 -160 0 -212 57
-136 233 -194 347 -112 l28 19 0 -31 c0 -78 -58 -140 -133 -140 -44 0 -70 12
-109 47 l-27 25 -55 -22 c-54 -23 -55 -24 -41 -49 36 -70 135 -124 226 -124
91 0 148 21 201 74 72 72 78 103 78 411 l0 259 -67 -3 c-62 -3 -68 -5 -71 -26
-3 -22 -3 -22 -30 -3 -49 35 -115 47 -177 32z m147 -148 c83 -41 73 -174 -15
-216 -43 -21 -58 -21 -102 -3 -70 30 -96 122 -52 187 37 55 100 67 169 32z"/>
<path d="M2035 1541 c-122 -32 -198 -128 -198 -253 0 -55 5 -75 30 -120 56
-100 176 -154 288 -129 171 38 259 216 182 368 -41 81 -119 130 -214 138 -32
2 -71 1 -88 -4z m152 -165 c63 -69 36 -177 -52 -206 -113 -37 -206 108 -128
200 34 41 58 51 108 45 30 -3 48 -13 72 -39z"/>
<path d="M847 1380 c-84 -66 -38 -200 68 -200 105 0 153 128 74 194 -39 33
-104 36 -142 6z"/>
</g>
</svg>
